<svg xmlns="http://www.w3.org/2000/svg" width="896.973" height="375.82" viewBox="0 0 896.973 375.82"><g data-name="Group 3"><g data-name="Group 2"><path data-name="Path 40" d="M45.373 317.89v10.29q-7.53-6.3-15.57-6.3a19.82 19.82 0 00-14.94 6.37 21.49 21.49 0 00-6.11 15.5 21 21 0 006.11 15.25 20.21 20.21 0 0015 6.22 18.39 18.39 0 007.78-1.49 23.179 23.179 0 003.71-2 45.838 45.838 0 004-3.06v10.47a31.42 31.42 0 01-15.65 4.21 28.84 28.84 0 01-21-8.61 28.5 28.5 0 01-8.7-20.92 29.53 29.53 0 017.26-19.59q8.94-10.55 23.13-10.54a29.42 29.42 0 0115 4.2" fill="#fff"/><path data-name="Path 41" d="M66.593 343.3a28.14 28.14 0 018.9-20.86 29.31 29.31 0 0121.31-8.72 30.08 30.08 0 0129.91 29.91 28.29 28.29 0 01-8.87 21.05 30.38 30.38 0 01-41.49 1q-9.76-8.53-9.76-22.35m8.75.11a20.79 20.79 0 006.41 15.68 21.21 21.21 0 0030-.11 22.33 22.33 0 00.08-30.84 21.45 21.45 0 00-30.29 0 20.74 20.74 0 00-6.18 15.27" fill="#fff"/><path data-name="Path 42" d="M160.443 314.8v49.36h16.91v8.15h-25.59V314.8z" fill="#fff"/><path data-name="Path 43" d="M208.283 314.8v49.36h16.91v8.15h-25.59V314.8z" fill="#fff"/><path data-name="Path 44" d="M279.173 322.96h-23.06v13.82h22.39v8.16h-22.39v19.22h23.06v8.15h-31.74V314.8h31.74z" fill="#fff"/><path data-name="Path 45" d="M346.583 317.89v10.29q-7.51-6.3-15.57-6.3a19.8 19.8 0 00-14.93 6.37 21.45 21.45 0 00-6.11 15.5 20.94 20.94 0 006.11 15.25 20.19 20.19 0 0015 6.22 18.44 18.44 0 007.79-1.49 23.111 23.111 0 003.7-2 44.409 44.409 0 004-3.06v10.47a31.39 31.39 0 01-15.64 4.21 28.88 28.88 0 01-21.05-8.61 28.52 28.52 0 01-8.67-20.93 29.53 29.53 0 017.26-19.59q8.94-10.55 23.13-10.54a29.39 29.39 0 0115 4.2" fill="#fff"/><path data-name="Path 46" d="M389.203 322.96v49.35h-8.68v-49.35h-13.22v-8.16h35.09v8.16z" fill="#fff"/><path data-name="Rectangle 1" fill="#fff" d="M424.423 314.8h8.68v57.51h-8.68z"/><path data-name="Path 47" d="M461.173 372.31v-61.42l41.94 43.88V314.8h8.68v61.01l-41.94-43.76v40.26z" fill="#fff"/><path data-name="Path 48" d="M569.313 342.37h23.76v1.9a39.182 39.182 0 01-1.53 11.47 24.3 24.3 0 01-5 8.64 26 26 0 01-20.37 9 28 28 0 01-20.67-8.71 30 30 0 0134-48.24 36.32 36.32 0 0111 8.94l-6.18 5.92q-7.08-9.42-17.25-9.42a20.6 20.6 0 00-15.31 6.3 21 21 0 00-6.18 15.49 20.36 20.36 0 006.89 15.83q6.43 5.78 14 5.77a17.36 17.36 0 0011.53-4.26 15.38 15.38 0 005.7-10.43h-14.39z" fill="#fff"/><path data-name="Path 49" d="M679.693 317.89v10.29q-7.53-6.3-15.57-6.3a19.82 19.82 0 00-14.94 6.37 21.49 21.49 0 00-6.11 15.5 21 21 0 006.11 15.25 20.2 20.2 0 0015 6.22 18.431 18.431 0 007.78-1.49 23.176 23.176 0 003.71-2 47.366 47.366 0 004-3.06v10.47a31.42 31.42 0 01-15.67 4.22 28.84 28.84 0 01-21-8.61 28.5 28.5 0 01-8.68-20.93 29.53 29.53 0 017.26-19.59q8.94-10.55 23.13-10.54a29.42 29.42 0 0115 4.2" fill="#fff"/><path data-name="Path 50" d="M740.003 358.35h-24.61l-6.4 14h-9.35l28.46-61.12 27.45 61.12h-9.5zm-3.54-8.16l-8.46-19.56-9 19.56z" fill="#fff"/><path data-name="Path 51" d="M796.793 347.8l17.8 24.51h-10.59l-16.43-23.54h-1.57v23.54h-8.68V314.8h10.17q11.38 0 16.46 4.29a15.75 15.75 0 015.59 12.59 16.36 16.36 0 01-3.5 10.5 15.64 15.64 0 01-9.24 5.62m-10.8-6.59h2.75q12.33 0 12.33-9.42 0-8.84-12-8.83h-3.08z" fill="#fff"/><path data-name="Path 52" d="M868.113 323.37l-7 4.17a12.23 12.23 0 00-3.76-4.47 10 10 0 00-10.8.86 6.35 6.35 0 00-2.39 5.06q0 4.22 6.26 6.78l5.74 2.35q7 2.83 10.24 6.91a15.57 15.57 0 013.24 10 17.55 17.55 0 01-5.29 13.11 18.14 18.14 0 01-13.22 5.22 17.68 17.68 0 01-12.37-4.44q-4.8-4.43-6-12.47l8.79-1.94q.6 5.07 2.09 7a9.9 9.9 0 0014.56 1 9.4 9.4 0 002.69-6.89 9.711 9.711 0 00-.47-3.08 7.839 7.839 0 00-1.45-2.57 11.679 11.679 0 00-2.55-2.19 24.287 24.287 0 00-3.73-2l-5.55-2.31q-11.8-5-11.81-14.6a13.84 13.84 0 015-10.84 17.89 17.89 0 0112.33-4.4q9.95 0 15.53 9.69" fill="#fff"/><path data-name="Path 53" d="M411.423 48.24q5.15 22.62 10.28 45.2c-15.45-1.72-30.9-3.61-46.35-6.5a283.537 283.537 0 01-46.35-12.46q5.14 23.91 10.29 47.56a316.427 316.427 0 0046.35 10.71c15.45 2.49 30.91 4.16 46.36 5.83q-5.15-22.58-10.29-45.13c15.45 1.71 30.9 3.24 46.35 5.41a363.64 363.64 0 0146.36 9.21 237.694 237.694 0 0146.35 17.93q5.15 24.66 10.29 49.66t10.28 50.34q5.14 25.38 10.29 51.16a227.921 227.921 0 00-46.36-26.39 260.141 260.141 0 00-46.35-14.45c-15.46-3.37-30.91-5.57-46.36-7.4q-5.15-22.62-10.28-45.2c15.45 1.71 30.9 3.61 46.35 6.49a283.861 283.861 0 0146.37 12.49q-5.15-23.91-10.29-47.56a317.764 317.764 0 00-46.35-10.72c-15.46-2.48-30.91-4.15-46.36-5.83l10.28 45.14c-15.45-1.71-30.9-3.24-46.35-5.41a363.644 363.644 0 01-46.36-9.21 238.331 238.331 0 01-46.35-17.9q-5.15-24.66-10.29-49.66t-10.29-50.39q-5.14-25.38-10.29-51.16a227.92 227.92 0 0046.36 26.39 260.141 260.141 0 0046.35 14.45c15.46 3.37 30.91 5.56 46.36 7.4" fill="#87a5b8"/><path data-name="Path 54" d="M432.003 138.59l10.28 45.14c-15.45-1.71-30.9-3.24-46.35-5.41a363.644 363.644 0 01-46.36-9.21 237.691 237.691 0 01-46.35-17.9q-5.15-24.66-10.29-49.66t-10.29-50.39q-5.14-25.38-10.29-51.16a227.92 227.92 0 0046.36 26.39 260.141 260.141 0 0046.35 14.45c15.45 3.37 30.91 5.57 46.36 7.4q5.15 22.62 10.28 45.2c-15.45-1.71-30.9-3.61-46.35-6.5a283.537 283.537 0 01-46.35-12.46q5.14 23.91 10.29 47.56a316.427 316.427 0 0046.35 10.71c15.45 2.49 30.91 4.16 46.36 5.83" fill="#5f87a0"/><path data-name="Rectangle 2" fill="none" d="M.003 0h896.97v375.82H.003z"/></g><text data-name="®" transform="translate(876.003 323)" fill="#fff" font-size="13" font-family="HelveticaNeue, Helvetica Neue"><tspan x="0" y="0">®</tspan></text></g></svg>